PathFileType	4	(X/Y/Z)	C:\Users\86182\Documents\cortex\Trimmed_M3_H5.trc
DataRate	CameraRate	NumFrames	NumMarkers	Units	OrigDataRate	OrigDataStartFrame	OrigNumFrames
100.00	100.00	       169	2	mm	100.00	721	       901
Frame#	Time	gripper			box			
		X1	Y1	Z1	X2	Y2	Z2	

721	7.200	267.70224	173.14066	292.06754	273.19650	168.20695	148.33391	
722	7.210	267.70581	173.14064	292.06586	273.11462	168.25549	148.37875	
723	7.220	267.71124	173.14088	292.06354	272.95868	168.34698	148.46532	
724	7.230	267.71741	173.14087	292.06067	272.74493	168.47173	148.58481	
725	7.240	267.72336	173.14034	292.05753	272.50644	168.61034	148.71872	
726	7.250	267.72861	173.13943	292.05432	272.30411	168.72769	148.83253	
727	7.260	267.73291	173.13869	292.05161	272.21655	168.77869	148.88156	
728	7.270	267.73584	173.13852	292.05014	272.28391	168.74034	148.84302	
729	7.280	267.73676	173.13911	292.05051	272.46796	168.63441	148.73865	
730	7.290	267.73523	173.14046	292.05280	272.69281	168.50435	148.61159	
731	7.300	267.73151	173.14240	292.05676	272.90198	168.38266	148.49379	
732	7.310	267.72623	173.14456	292.06168	273.06952	168.28458	148.39973	
733	7.320	267.72055	173.14651	292.06656	273.18967	168.21381	148.33244	
734	7.330	267.71558	173.14819	292.07056	273.26797	168.16742	148.28867	
735	7.340	267.71234	173.14981	292.07324	273.31461	168.13985	148.26259	
736	7.350	267.71130	173.15125	292.07416	273.33929	168.12573	148.24855	
737	7.360	267.71194	173.15187	292.07306	273.34857	168.12152	148.24268	
738	7.370	267.71301	173.15117	292.07019	273.34427	168.12599	148.24399	
739	7.380	267.71362	173.14919	292.06622	273.32343	168.14030	148.25446	
740	7.390	267.71378	173.14644	292.06183	273.27896	168.16800	148.27849	
741	7.400	267.71417	173.14357	292.05762	273.20102	168.21428	148.32195	
742	7.410	267.71561	173.14119	292.05402	273.07971	168.28456	148.39061	
743	7.420	267.71823	173.13980	292.05145	272.90939	168.38182	148.48775	
744	7.430	267.72137	173.13957	292.05045	272.69556	168.50272	148.61035	
745	7.440	267.72379	173.14015	292.05121	272.46402	168.63243	148.74376	
746	7.450	267.72461	173.14075	292.05350	272.27191	168.73869	148.85529	
747	7.460	267.72369	173.14066	292.05670	272.19659	168.77829	148.90047	
748	7.470	267.72159	173.13965	292.06018	272.27829	168.72928	148.85576	
749	7.480	267.71902	173.13803	292.06335	272.47891	168.61411	148.74239	
750	7.490	267.71680	173.13638	292.06561	272.72144	168.47664	148.60405	
751	7.500	267.71542	173.13522	292.06647	272.94669	168.35008	148.47464	
752	7.510	267.71472	173.13483	292.06583	273.12469	168.25089	148.37161	
753	7.520	267.71396	173.13521	292.06412	273.24414	168.18506	148.30179	
754	7.530	267.71268	173.13626	292.06226	273.30295	168.15346	148.26663	
755	7.540	267.71085	173.13786	292.06104	273.30167	168.15555	148.26608	
756	7.550	267.70914	173.13971	292.06064	273.24030	168.19124	148.30019	
757	7.560	267.70837	173.14146	292.06061	273.11868	168.26068	148.36902	
758	7.570	267.70926	173.14307	292.06055	272.93982	168.36227	148.47081	
759	7.580	267.71170	173.14445	292.06033	272.71597	168.48926	148.59850	
760	7.590	267.71463	173.14525	292.06000	272.47739	168.62460	148.73476	
761	7.600	267.71661	173.14511	292.05969	272.28317	168.73494	148.84575	
762	7.610	267.71704	173.14415	292.05954	272.21021	168.77661	148.88753	
763	7.620	267.71603	173.14281	292.05972	272.29663	168.72795	148.83832	
764	7.630	267.71429	173.14157	292.06012	272.50137	168.61218	148.72157	
765	7.640	267.71265	173.14098	292.06073	272.74405	168.47478	148.58328	
766	7.650	267.71155	173.14139	292.06158	272.96146	168.35143	148.45950	
767	7.660	267.71109	173.14284	292.06274	273.11923	168.26166	148.36986	
768	7.670	267.71136	173.14500	292.06409	273.20163	168.21468	148.32315	
769	7.680	267.71255	173.14755	292.06543	273.20313	168.21399	148.32237	
770	7.690	267.71463	173.15028	292.06683	273.12354	168.25992	148.36742	
771	7.700	267.71707	173.15283	292.06812	272.96829	168.34935	148.45512	
772	7.710	267.71930	173.15472	292.06900	272.75296	168.47301	148.57686	
773	7.720	267.72104	173.15581	292.06940	272.51105	168.61134	148.71390	
774	7.730	267.72223	173.15642	292.06970	272.30435	168.72887	148.83125	
775	7.740	267.72266	173.15678	292.07013	272.21252	168.78024	148.88354	
776	7.750	267.72195	173.15681	292.07062	272.27661	168.74242	148.84726	
777	7.760	267.72009	173.15628	292.07101	272.45892	168.63722	148.74370	
778	7.770	267.71759	173.15530	292.07138	272.68329	168.50826	148.61623	
779	7.780	267.71539	173.15422	292.07178	272.89221	168.38820	148.49759	
780	7.790	267.71423	173.15329	292.07214	273.05869	168.29239	148.40318	
781	7.800	267.71426	173.15250	292.07227	273.17615	168.22466	148.33676	
782	7.810	267.71542	173.15169	292.07190	273.24963	168.18224	148.29538	
783	7.820	267.71777	173.15091	292.07080	273.28949	168.15952	148.27306	
784	7.830	267.72171	173.15021	292.06876	273.30676	168.15031	148.26340	
785	7.840	267.72702	173.14943	292.06580	273.31039	168.14941	148.26126	
786	7.850	267.73248	173.14824	292.06238	273.30655	168.15298	148.26321	
787	7.860	267.73642	173.14658	292.05927	273.29910	168.15842	148.26717	
788	7.870	267.73770	173.14468	292.05713	273.29037	168.16396	148.27197	
789	7.880	267.73608	173.14296	292.05640	273.28156	168.16861	148.27725	
790	7.890	267.73169	173.14182	292.05719	273.27277	168.17216	148.28296	
791	7.900	267.72525	173.14142	292.05927	273.26358	168.17494	148.28923	
792	7.910	267.71805	173.14189	292.06219	273.25385	168.17732	148.29594	
793	7.920	267.71136	173.14314	292.06567	273.24438	168.17941	148.30246	
794	7.930	267.70605	173.14490	292.06924	273.23666	168.18105	148.30771	
795	7.940	267.70267	173.14674	292.07239	273.23193	168.18214	148.31075	
796	7.950	267.70126	173.14832	292.07440	273.23059	168.18274	148.31128	
797	7.960	267.70181	173.14935	292.07501	273.23221	168.18297	148.30960	
798	7.970	267.70422	173.14981	292.07425	273.23611	168.18285	148.30624	
799	7.980	267.70868	173.14999	292.07245	273.24185	168.18230	148.30173	
800	7.990	267.71524	173.15034	292.07025	273.24869	168.18130	148.29665	
801	8.000	267.72324	173.15118	292.06830	273.25574	168.17996	148.29169	
802	8.010	267.73120	173.15247	292.06726	273.26218	168.17841	148.28751	
803	8.020	267.73761	173.15379	292.06714	273.26736	168.17682	148.28439	
804	8.030	267.74146	173.15465	292.06750	273.27094	168.17549	148.28247	
805	8.040	267.74234	173.15456	292.06772	273.27283	168.17476	148.28148	
806	8.050	267.74039	173.15349	292.06744	273.27356	168.17471	148.28090	
807	8.060	267.73627	173.15193	292.06702	273.27393	168.17503	148.28030	
808	8.070	267.73114	173.15053	292.06696	273.27435	168.17534	148.27971	
809	8.080	267.72620	173.14972	292.06754	273.27475	168.17540	148.27930	
810	8.090	267.72247	173.14957	292.06870	273.27481	168.17525	148.27937	
811	8.100	267.72040	173.14984	292.06982	273.27423	168.17500	148.28009	
812	8.110	267.72006	173.15027	292.07031	273.27295	168.17476	148.28142	
813	8.120	267.72137	173.15071	292.06967	273.27103	168.17464	148.28314	
814	8.130	267.72372	173.15126	292.06812	273.26871	168.17487	148.28496	
815	8.140	267.72629	173.15190	292.06622	273.26630	168.17558	148.28642	
816	8.150	267.72824	173.15239	292.06448	273.26416	168.17668	148.28731	
817	8.160	267.72913	173.15245	292.06314	273.26230	168.17792	148.28784	
818	8.170	267.72894	173.15196	292.06223	273.26038	168.17903	148.28853	
819	8.180	267.72791	173.15091	292.06155	273.25821	168.17990	148.28966	
820	8.190	267.72604	173.14937	292.06104	273.25598	168.18042	148.29114	
821	8.200	267.72330	173.14767	292.06079	273.25415	168.18056	148.29260	
822	8.210	267.71954	173.14624	292.06119	273.25327	168.18031	148.29356	
823	8.220	267.71487	173.14534	292.06244	273.25351	168.17986	148.29376	
824	8.230	267.70969	173.14507	292.06439	273.25439	168.17940	148.29337	
825	8.240	267.70493	173.14520	292.06650	273.25537	168.17920	148.29271	
826	8.250	267.70184	173.14542	292.06799	273.25620	168.17928	148.29193	
827	8.260	267.70145	173.14561	292.06848	273.25696	168.17955	148.29102	
828	8.270	267.70395	173.14612	292.06836	273.25787	168.17986	148.28998	
829	8.280	267.70853	173.14725	292.06805	273.25873	168.18011	148.28902	
830	8.290	267.71384	173.14880	292.06781	273.25897	168.18033	148.28862	
831	8.300	267.71869	173.15030	292.06741	273.25806	168.18059	148.28918	
832	8.310	267.72256	173.15146	292.06668	273.25632	168.18089	148.29042	
833	8.320	267.72546	173.15227	292.06580	273.25470	168.18120	148.29153	
834	8.330	267.72751	173.15288	292.06503	273.25421	168.18141	148.29179	
835	8.340	267.72870	173.15314	292.06433	273.25516	168.18140	148.29099	
836	8.350	267.72885	173.15279	292.06357	273.25717	168.18111	148.28949	
837	8.360	267.72778	173.15182	292.06287	273.25958	168.18050	148.28793	
838	8.370	267.72562	173.15059	292.06250	273.26157	168.17955	148.28703	
839	8.380	267.72302	173.14972	292.06281	273.26260	168.17830	148.28725	
840	8.390	267.72076	173.14960	292.06384	273.26297	168.17670	148.28831	
841	8.400	267.71930	173.14995	292.06519	273.26340	168.17480	148.28958	
842	8.410	267.71893	173.15016	292.06622	273.26425	168.17291	148.29048	
843	8.420	267.71982	173.14983	292.06656	273.26538	168.17157	148.29065	
844	8.430	267.72177	173.14899	292.06638	273.26642	168.17125	148.29004	
845	8.440	267.72421	173.14795	292.06601	273.26703	168.17198	148.28886	
846	8.450	267.72662	173.14699	292.06567	273.26718	168.17329	148.28761	
847	8.460	267.72888	173.14621	292.06525	273.26682	168.17459	148.28682	
848	8.470	267.73099	173.14574	292.06458	273.26581	168.17554	148.28687	
849	8.480	267.73285	173.14565	292.06369	273.26422	168.17604	148.28781	
850	8.490	267.73413	173.14594	292.06256	273.26230	168.17610	148.28940	
851	8.500	267.73456	173.14642	292.06125	273.26065	168.17567	148.29118	
852	8.510	267.73398	173.14673	292.05966	273.25986	168.17485	148.29259	
853	8.520	267.73233	173.14667	292.05786	273.25992	168.17393	148.29333	
854	8.530	267.72971	173.14629	292.05615	273.26013	168.17329	148.29369	
855	8.540	267.72626	173.14590	292.05511	273.25986	168.17310	148.29408	
856	8.550	267.72241	173.14581	292.05496	273.25916	168.17323	148.29457	
857	8.560	267.71912	173.14612	292.05573	273.25851	168.17366	148.29475	
858	8.570	267.71741	173.14680	292.05704	273.25824	168.17442	148.29431	
859	8.580	267.71780	173.14777	292.05850	273.25851	168.17545	148.29321	
860	8.590	267.71988	173.14896	292.06000	273.25940	168.17651	148.29153	
861	8.600	267.72253	173.15030	292.06165	273.26099	168.17725	148.28952	
862	8.610	267.72458	173.15175	292.06369	273.26303	168.17737	148.28767	
863	8.620	267.72543	173.15321	292.06616	273.26486	168.17676	148.28661	
864	8.630	267.72507	173.15454	292.06888	273.26578	168.17554	148.28688	
865	8.640	267.72388	173.15550	292.07159	273.26529	168.17395	148.28865	
866	8.650	267.72253	173.15601	292.07416	273.26343	168.17244	148.29155	
867	8.660	267.72183	173.15610	292.07620	273.26074	168.17133	148.29483	
868	8.670	267.72220	173.15575	292.07733	273.25812	168.17065	148.29767	
869	8.680	267.72357	173.15494	292.07733	273.25632	168.17046	148.29941	
870	8.690	267.72571	173.15363	292.07599	273.25528	168.17084	148.29999	
871	8.700	267.72827	173.15176	292.07339	273.25443	168.17195	148.29980	
872	8.710	267.73050	173.14954	292.07007	273.25342	168.17360	148.29933	
873	8.720	267.73154	173.14743	292.06689	273.25241	168.17540	148.29874	
874	8.730	267.73099	173.14595	292.06482	273.25195	168.17700	148.29784	
875	8.740	267.72906	173.14537	292.06403	273.25247	168.17825	148.29643	
876	8.750	267.72662	173.14574	292.06427	273.25385	168.17903	148.29466	
877	8.760	267.72488	173.14713	292.06512	273.25580	168.17921	148.29282	
878	8.770	267.72504	173.14934	292.06580	273.25842	168.17867	148.29088	
879	8.780	267.72736	173.15179	292.06573	273.26190	168.17729	148.28865	
880	8.790	267.73108	173.15366	292.06476	273.26645	168.17513	148.28584	
881	8.800	267.73495	173.15443	292.06323	273.27243	168.17204	148.28217	
882	8.810	267.73770	173.15404	292.06168	273.28036	168.16771	148.27736	
883	8.820	267.73868	173.15251	292.06033	273.29059	168.16197	148.27141	
884	8.830	267.73785	173.14993	292.05908	273.30225	168.15530	148.26486	
885	8.840	267.73575	173.14655	292.05762	273.31274	168.14923	148.25929	
886	8.850	267.73325	173.14278	292.05566	273.31720	168.14664	148.25735	
887	8.860	267.73135	173.13916	292.05316	273.30804	168.15196	148.26328	
888	8.870	267.73065	173.13623	292.05048	273.27481	168.17125	148.28275	
889	8.880	267.73105	173.13438	292.04819	273.20557	168.21143	148.32231	
